# xmcd CD database file
# Generated: Wed Apr 17 12:25:13 2002 by KSCD
# 
# Track frame offsets:
#       182
#       11870
#       27845
#       38575
#       57202
#       70942
#       85165
#       100825
#       113352
#       127442
#
# Disc length: 1883 seconds
#
# Revision: 3
# Processed by: cddbd v1.4PL0 Copyright (c) Steve Scherf et al.
# Submitted via: Kscd 1.2.7
#
DISCID=7d07590a
DTITLE=The Lynns - The Lynns
DYEAR=1900
DGENRE=
TTITLE0=Crazy World Of Love
TTITLE1=Woman To Woman
TTITLE2=This Must Be Love
TTITLE3=It Hurts Me
TTITLE4=Cry Cry Baby 
TTITLE5=Nights Like These
TTITLE6=Oh My Goodness
TTITLE7=What Am I Doing Loving You
TTITLE8=I Won't Leave This World Unloved
TTITLE9=Someday
EXTD=
EXTT0=
EXTT1=
EXTT2=
EXTT3=
EXTT4=
EXTT5=
EXTT6=
EXTT7=
EXTT8=
EXTT9=
PLAYORDER=
